<svg xmlns="http://www.w3.org/2000/svg" width="110.6mm" height="110.6mm" viewBox="0 0 90 90">
<path style="fill:#ffffff; stroke:none;" d="M0 0L0 90L90 90L90 0L0 0z"></path>
<path style="fill:#000000; stroke:none;" d="M10 10L10 80L80 80L80 10L10 10z"></path>
<path style="fill:#ffffff; stroke:none;" d="M20 20L20 30L30 30L30 20L20 20M40 20L40 40L20 40L20 50L40 50L40 40L70 40L70 30L60 30L60 20L40 20M60 50L60 70L70 70L70 50L60 50M20 60L20 70L30 70L30 60L20 60M40 60L40 70L50 70L50 60L40 60z"></path>
</svg>