<svg xmlns="http://www.w3.org/2000/svg" width="110.6mm" height="110.6mm" viewBox="0 0 90 90">
<path style="fill:#ffffff; stroke:none;" d="M0 0L0 90L90 90L90 0L0 0z"></path>
<path style="fill:#000000; stroke:none;" d="M10 10L10 80L80 80L80 10L10 10z"></path>
<path style="fill:#ffffff; stroke:none;" d="M20 20L20 30L30 30L30 20L20 20M40 20L40 40L20 40L20 60L30 60L30 50L40 50L40 70L50 70L50 60L60 60L60 50L70 50L70 20L40 20z"></path>
<path style="fill:#000000; stroke:none;" d="M40 40L40 50L50 50L50 40L40 40z"></path>
</svg>