<svg xmlns="http://www.w3.org/2000/svg" width="110.6mm" height="110.6mm" viewBox="0 0 90 90">
<path style="fill:#ffffff; stroke:none;" d="M0 0L0 90L90 90L90 0L0 0z"></path>
<path style="fill:#000000; stroke:none;" d="M10 10L10 80L80 80L80 10L10 10z"></path>
<path style="fill:#ffffff; stroke:none;" d="M20 20L20 30L40 30L40 20L20 20M50 20L50 40L30 40L30 50L20 50L20 70L50 70L50 60L70 60L70 40L60 40L60 20L50 20z"></path>
<path style="fill:#000000; stroke:none;" d="M50 40L50 50L60 50L60 40L50 40z"></path>
</svg>